<?xml version="1.0" encoding="UTF-8"?>
<!DOCTYPE svg PUBLIC "-//W3C//DTD SVG 1.1//EN" "http://www.w3.org/Graphics/SVG/1.1/DTD/svg11.dtd">
<!-- Creator: CorelDRAW -->
<svg xmlns="http://www.w3.org/2000/svg" xml:space="preserve" width="749.918mm" height="673.232mm" version="1.1" style="shape-rendering:geometricPrecision; text-rendering:geometricPrecision; image-rendering:optimizeQuality; fill-rule:evenodd; clip-rule:evenodd"
viewBox="0 0 3662.767 3288.215"
 xmlns:xlink="http://www.w3.org/1999/xlink"
 xmlns:xodm="http://www.corel.com/coreldraw/odm/2003">
 <defs>
  <style type="text/css">
   <![CDATA[
    .str0 {stroke:#373435;stroke-width:0.9768;stroke-miterlimit:22.9256}
    .fil0 {fill:none}
   ]]>
  </style>
 </defs>
 <g id="Camada_x0020_1">
  <metadata id="CorelCorpID_0Corel-Layer"/>
  <g id="_1539384333136">
   <path class="fil0 str0" d="M3485.8937 551.4729c0,-130.9006 -30.035,-228.6276 -90.1061,-293.1814 -60.519,-64.1054 -145.2456,-111.6241 -255.525,-142.1075 -6.7241,-44.8289 -2.2414,-83.382 13.4487,-115.6589 154.2116,17.4836 302.5958,41.2429 445.1516,70.83 -3.5865,162.2808 -5.3795,269.4216 -5.3795,320.9751l0 599.8115c0,69.0366 1.793,206.6618 5.3795,412.8747 -8.5176,12.1041 -24.2077,18.3798 -46.174,18.3798 -22.4142,0 -37.6564,-6.2757 -45.2772,-18.3798 -1.793,-43.9321 -4.9311,-77.1058 -9.4139,-98.6237 -4.0349,-21.9658 -13.8971,-43.4838 -29.1388,-65.8984 -15.6901,-21.9663 -39.4494,-36.7596 -72.623,-44.8289 -32.7253,-7.6209 -76.209,-11.6557 -130.4523,-11.6557l-1079.4814 0c-53.3465,0 -96.3823,4.0349 -130.0039,11.6557 -33.1736,8.0692 -57.3813,22.8626 -73.0714,44.8289 -15.2422,22.4147 -25.1044,43.9326 -29.1388,65.0022 -4.4832,21.5179 -7.6213,54.6911 -9.4143,99.52 -8.5176,12.1041 -24.2077,18.3798 -47.0707,18.3798 -22.4142,0 -37.208,-6.2757 -44.3805,-18.3798 3.5865,-202.6269 5.3795,-340.2517 5.3795,-412.4263 0,-32.7248 -0.4484,-65.4501 -1.3446,-98.6237 -0.8967,-33.1732 -1.7935,-78.8988 -2.6897,-137.1769 -0.8967,-57.8292 -1.3451,-115.6589 -1.3451,-172.5914 7.1725,-12.1041 21.5179,-18.3798 43.9326,-18.8282 21.9658,-0.4484 38.1048,5.8279 47.5186,18.8282 1.793,44.8289 4.9311,78.002 9.4143,99.0716 4.0344,21.5179 13.8966,43.4842 29.5872,65.8989 15.2417,22.4147 39.4494,37.6564 72.1747,45.7256 33.1736,8.5176 77.1058,12.552 131.349,12.552l1085.3093 0c142.1075,0 213.3854,-31.3802 213.3854,-94.5893l0 -161.384z"/>
   <path class="fil0 str0" d="M1634.7727 551.4729c0,-130.9006 -30.035,-228.6276 -90.1061,-293.1814 -60.519,-64.1054 -145.2456,-111.6245 -255.525,-142.108 -6.7241,-44.8289 -2.2414,-83.382 13.4487,-115.6589 154.2116,17.4836 302.5958,41.2429 445.1516,70.83 -3.5865,162.2808 -5.3795,269.4221 -5.3795,320.9756l0 599.811c0,69.0366 1.793,206.6618 5.3795,412.8752 -8.5176,12.1041 -24.2077,18.3798 -46.174,18.3798 -22.4142,0 -37.6564,-6.2757 -45.2772,-18.3798 -1.793,-43.9321 -4.9311,-77.1058 -9.4139,-98.6237 -4.0349,-21.9663 -13.8971,-43.4842 -29.1388,-65.8989 -15.6901,-21.9658 -39.4494,-36.7596 -72.623,-44.8289 -32.7253,-7.6209 -76.209,-11.6557 -130.4523,-11.6557l-1079.4814 0c-53.3465,0 -96.3823,4.0349 -130.0039,11.6557 -33.1736,8.0692 -57.3813,22.8631 -73.0714,44.8289 -15.2422,22.4147 -25.1044,43.9326 -29.1388,65.0022 -4.4832,21.5179 -7.6213,54.6916 -9.4143,99.5205 -8.5176,12.1041 -24.2077,18.3798 -47.0707,18.3798 -22.4142,0 -37.208,-6.2757 -44.3805,-18.3798 3.5865,-202.6269 5.3795,-340.2521 5.3795,-412.4268 0,-32.7248 -0.4484,-65.4501 -1.3446,-98.6237 -0.8967,-33.1732 -1.7935,-78.8988 -2.6897,-137.1764 -0.8967,-57.8292 -1.3451,-115.6589 -1.3451,-172.5914 7.1725,-12.1041 21.5179,-18.3798 43.9326,-18.8282 21.9658,-0.4484 38.1048,5.8279 47.5186,18.8282 1.793,44.8289 4.9311,78.002 9.4143,99.0716 4.0344,21.5179 13.8966,43.4842 29.5872,65.8989 15.2417,22.4142 39.4494,37.6564 72.1747,45.7256 33.1736,8.5171 77.1058,12.552 131.349,12.552l1085.3093 0c142.1075,0 213.3854,-31.3802 213.3854,-94.5893l0 -161.384z"/>
   <path class="fil0 str0" d="M1767.1982 2953.6749l-68.5887 -1124.3103 -6.7246 -0.4484 -618.6392 1424.6647c-10.759,23.7593 -28.2425,34.9666 -52.4497,34.0699 -27.7942,0 -46.174,-11.2073 -55.14,-34.0699l-542.4307 -1327.3856 -10.759 -1.7935 -70.8296 1008.6519c-5.8279,85.175 1.793,145.694 22.4142,182.0057 21.0701,36.3113 72.623,57.8292 154.6599,65.0017 7.173,7.173 10.759,22.4147 10.759,45.7256 0,23.3109 -3.586,38.5531 -10.759,45.7256 -107.5892,-3.5865 -201.2818,-5.3795 -281.0773,-5.3795 -42.5875,0 -117.9003,1.793 -226.3862,5.3795 -7.1725,-7.1725 -10.759,-21.9663 -10.759,-45.2772 0,-22.8626 3.5865,-38.5531 10.759,-46.174 73.5193,-6.2757 123.2798,-26.4491 149.7288,-60.519 26.0007,-34.0699 43.4838,-94.141 52.4497,-179.3155l108.0376 -1108.1723c8.966,-99.0721 4.4832,-158.6948 -13.4482,-177.9714 -18.3803,-19.2761 -74.4165,-31.3802 -169.0054,-36.7596 -8.966,-8.5176 -13.4487,-23.7593 -13.8971,-45.7256 -0.4484,-21.9663 4.4832,-37.208 13.8971,-45.7256l554.0859 5.3795 484.1531 1194.2441 13.0003 0 515.9812 -1194.2441 541.9823 -5.3795c8.966,8.5176 13.4487,23.7593 13.4487,45.2772 0,21.0696 -4.4827,36.7601 -13.4487,46.174 -88.3131,5.3795 -142.5558,19.2766 -162.7292,42.5875 -20.1728,23.3114 -27.7937,72.623 -22.4142,147.4874l82.0369 1132.38c3.1381,43.0354 5.8279,74.8644 7.1725,95.934 1.3451,20.6212 5.8279,42.1391 12.5525,63.2087 7.1725,21.0696 13.8966,35.415 19.7245,42.5875 6.2762,7.1725 18.3798,14.345 36.3113,21.9663 17.9319,7.6209 35.415,12.1036 52.4502,13.4487 17.0347,1.3446 43.0359,2.2414 78.002,3.1376 8.966,7.173 13.4487,22.4147 13.4487,45.7256 0,23.3109 -4.4827,38.5531 -13.4487,45.7256 -117.8998,-3.5865 -216.5235,-5.3795 -295.8707,-5.3795 -135.8317,0 -288.6987,1.793 -458.6008,5.3795 -8.966,-7.1725 -13.4487,-21.9663 -13.4487,-45.2772 0,-22.8626 4.4827,-38.5531 13.4487,-46.174 35.8634,-1.793 60.519,-2.6897 74.8644,-3.1376 13.8971,-0.4484 30.0355,-4.0349 48.4154,-10.759 18.3798,-6.7246 29.5872,-13.0008 33.622,-19.7249 3.586,-6.7241 8.0692,-19.2766 13.0003,-39.001 4.9311,-19.2766 7.1725,-39.4499 6.2757,-60.5194 -0.8963,-21.0696 -3.1376,-52.0014 -5.8274,-93.2442z"/>
   <path class="fil0 str0" d="M3581.4164 3175.2121c0,18.0199 1.3627,32.5568 3.9372,43.9141 2.7259,11.2054 7.7224,19.3826 15.1426,24.6829 7.5715,5.148 14.8397,8.48 21.957,9.8427 7.2682,1.5141 18.4741,2.574 33.6171,3.1801 4.0881,2.8768 6.2083,8.1767 6.2083,15.8996 0,7.5715 -2.1202,12.5686 -6.2083,14.9916 -48.1541,-1.2118 -94.6421,-1.8174 -139.3137,-1.8174 -43.4593,0 -89.4936,0.6056 -137.9505,1.8174 -4.0886,-2.4231 -6.3602,-7.2687 -6.5112,-14.8402 0,-7.4201 2.1198,-12.8714 6.5112,-16.051 15.1426,-0.6061 26.197,-1.666 33.4657,-3.1801 7.2682,-1.3627 14.6878,-4.6947 22.2599,-9.8427 7.4196,-5.3004 12.7195,-13.3256 15.4454,-24.5315 2.8773,-11.0545 4.24,-25.7428 4.24,-44.0655l0 -364.6376c0,-18.0203 -1.3627,-32.5573 -4.24,-43.9145 -2.7259,-11.2059 -8.0258,-19.3826 -15.4454,-24.6824 -7.572,-5.1489 -14.9916,-8.48 -22.2599,-9.8427 -7.2687,-1.5141 -18.3232,-2.5745 -33.4657,-3.1801 -4.0886,-2.8773 -6.3602,-8.0258 -6.5112,-15.4459 0,-7.4196 2.1198,-12.5686 6.5112,-15.4454 48.4569,1.2113 94.4912,1.8169 137.9505,1.8169 44.6716,0 91.1596,-0.6056 139.3137,-1.8169 4.0881,2.8768 6.2083,8.1772 6.2083,15.5968 0,7.5715 -2.1202,12.7205 -6.2083,15.2945 -14.8402,0.6056 -26.0456,1.666 -33.3138,3.1801 -7.4206,1.3627 -14.6888,4.6937 -22.2603,9.8427 -7.4201,5.2999 -12.4167,13.3256 -15.1426,24.531 -2.5745,11.054 -3.9372,25.7428 -3.9372,44.066l0 364.6376z"/>
   <path class="fil0 str0" d="M3065.1466 3172.7421l-23.1683 -379.7807 -2.2712 -0.1514 -208.9701 481.2372c-3.6344,8.0258 -9.5399,11.8115 -17.717,11.5087 -9.3885,0 -15.5973,-3.7858 -18.626,-11.5087l-183.2273 -448.3771 -3.6344 -0.6061 -23.9254 340.7122c-1.9688,28.7715 0.6056,49.2144 7.571,61.4802 7.1173,12.2653 24.5315,19.5335 52.2426,21.9565 2.4231,2.4231 3.6344,7.5715 3.6344,15.4459 0,7.8743 -1.2113,13.0223 -3.6344,15.4454 -36.3425,-1.2113 -67.9908,-1.8169 -94.9454,-1.8169 -14.3855,0 -39.825,0.6056 -76.4708,1.8169 -2.4226,-2.4231 -3.6344,-7.4201 -3.6344,-15.294 0,-7.7229 1.2118,-13.0233 3.6344,-15.5973 24.8343,-2.1198 41.6429,-8.9342 50.5771,-20.4424 8.7828,-11.5087 14.6888,-31.8002 17.717,-60.5712l36.4939 -374.3294c3.0287,-33.4652 1.5141,-53.6053 -4.5428,-60.1165 -6.2083,-6.5116 -25.1367,-10.5997 -57.0883,-12.4177 -3.0282,-2.8768 -4.5423,-8.0258 -4.6942,-15.4454 -0.1514,-7.4201 1.5141,-12.5686 4.6942,-15.4459l187.1644 1.8174 163.5419 403.4032 4.3919 0 174.293 -403.4032 183.0759 -1.8174c3.0287,2.8773 4.5428,8.0258 4.5428,15.2945 0,7.1173 -1.5141,12.4172 -4.5428,15.5968 -29.8314,1.8179 -48.1541,6.5116 -54.968,14.386 -6.8145,7.8743 -9.3885,24.531 -7.5715,49.8196l27.7111 382.5065c1.0604,14.5369 1.9688,25.2886 2.4231,32.4054 0.4542,6.9659 1.9688,14.2346 4.24,21.3514 2.4231,7.1168 4.6942,11.9629 6.6626,14.3855 2.1202,2.4231 6.2088,4.8456 12.2658,7.4201 6.0569,2.574 11.9629,4.0886 17.7175,4.5428 5.7541,0.4542 14.5369,0.7571 26.3484,1.0599 3.0282,2.4231 4.5428,7.5715 4.5428,15.4459 0,7.8743 -1.5146,13.0223 -4.5428,15.4454 -39.826,-1.2113 -73.1398,-1.8169 -99.9425,-1.8169 -45.8829,0 -97.5194,0.6056 -154.911,1.8169 -3.0282,-2.4231 -4.5428,-7.4201 -4.5428,-15.294 0,-7.7229 1.5146,-13.0233 4.5428,-15.5973 12.1148,-0.6056 20.4434,-0.9085 25.2886,-1.0599 4.6947,-0.1514 10.1455,-1.3632 16.3543,-3.6344 6.2088,-2.2717 9.9941,-4.3914 11.3568,-6.6626 1.2118,-2.2717 2.7259,-6.5116 4.3919,-13.1747 1.6655,-6.5112 2.4226,-13.3256 2.1198,-20.4424 -0.3028,-7.1168 -1.0599,-17.5656 -1.9688,-31.4969z"/>
  </g>
 </g>
</svg>
