<?xml version="1.0" encoding="UTF-8"?>
<!DOCTYPE svg PUBLIC "-//W3C//DTD SVG 1.1//EN" "http://www.w3.org/Graphics/SVG/1.1/DTD/svg11.dtd">
<!-- Creator: CorelDRAW -->
<svg xmlns="http://www.w3.org/2000/svg" xml:space="preserve" width="65.6529mm" height="10.4833mm" version="1.1" style="shape-rendering:geometricPrecision; text-rendering:geometricPrecision; image-rendering:optimizeQuality; fill-rule:evenodd; clip-rule:evenodd"
viewBox="0 0 8.9018 1.4214"
 xmlns:xlink="http://www.w3.org/1999/xlink"
 xmlns:xodm="http://www.corel.com/coreldraw/odm/2003">
 <defs>
  <style type="text/css">
   <![CDATA[
    .fil0 {fill:#4D4D4D}
    .fil1 {fill:#FF6600}
   ]]>
  </style>
 </defs>
 <g id="Layer_x0020_1">
  <metadata id="CorelCorpID_0Corel-Layer"/>
  <path class="fil0" d="M8.2294 0.7916c0.0024,-0.0204 0.0062,-0.0408 0.0121,-0.0606 0.0092,-0.0307 0.0232,-0.0625 0.0458,-0.0873 0.0188,-0.0207 0.0422,-0.0386 0.0705,-0.0478 0.0258,-0.0084 0.0531,-0.0117 0.0805,-0.0117 0.0291,0 0.0576,0.0045 0.0846,0.0142 0.0287,0.0103 0.0521,0.0276 0.07,0.0497 0.0214,0.0253 0.0346,0.0565 0.0433,0.0871 0.0116,0.0413 0.0149,0.0865 0.0149,0.129 0,0.0419 -0.0021,0.0901 -0.0145,0.1307 -0.0093,0.0305 -0.0239,0.0591 -0.0452,0.084 -0.0179,0.0217 -0.0409,0.0383 -0.0689,0.0481 -0.0263,0.0092 -0.0536,0.0136 -0.0818,0.0136 -0.0304,0 -0.0605,-0.0044 -0.0886,-0.0151 -0.0278,-0.0106 -0.0507,-0.0271 -0.0692,-0.0486 -0.022,-0.0257 -0.0352,-0.0572 -0.0435,-0.0885 -0.0106,-0.0403 -0.014,-0.0828 -0.014,-0.1241 0,-0.0242 0.0011,-0.0485 0.004,-0.0726zm0.407 -0.3292c-0.063,-0.0211 -0.1311,-0.0288 -0.1981,-0.0288 -0.1281,0 -0.2506,0.0286 -0.3415,0.1134 -0.0918,0.0857 -0.122,0.1994 -0.122,0.3157 0,0.1158 0.0302,0.229 0.1213,0.3147 0.0907,0.0854 0.214,0.1139 0.3423,0.1139 0.1283,0 0.2515,-0.0285 0.3423,-0.1139 0.0911,-0.0857 0.1213,-0.1989 0.1213,-0.3147 0,-0.116 -0.0302,-0.2289 -0.1209,-0.315 -0.0406,-0.0386 -0.0892,-0.0667 -0.1446,-0.0853z"/>
  <path class="fil0" d="M7.1014 0.8689l0 0.2066 -0.007 0.0057c-0.0243,0.02 -0.0523,0.0356 -0.0826,0.0472 -0.0299,0.0114 -0.0614,0.0182 -0.094,0.0182 -0.0263,0 -0.0598,-0.0008 -0.0849,-0.0081 -0.019,-0.0055 -0.0365,-0.0143 -0.0506,-0.0262 -0.014,-0.0111 -0.0254,-0.0247 -0.0303,-0.0412l-0.0001 -0.0005c-0.004,-0.0154 -0.0052,-0.0318 -0.0052,-0.0476 0,-0.0278 0.0073,-0.055 0.0272,-0.0769 0.0192,-0.0211 0.046,-0.0346 0.0743,-0.0433 0.0327,-0.01 0.0709,-0.0153 0.105,-0.0193 0.0414,-0.0049 0.083,-0.0093 0.1247,-0.0127l0.0235 -0.0019zm-0.523 -0.2252c0.0021,-0.0003 0.0042,-0.0009 0.0065,-0.0017 0.0345,-0.012 0.0699,-0.0227 0.105,-0.0332 0.0502,-0.015 0.1029,-0.0246 0.1558,-0.0246 0.0591,0 0.1318,0.0048 0.1856,0.0287 0.0507,0.0226 0.0717,0.0642 0.0717,0.1139l0 0.0229 -0.0202 0.0011c-0.0801,0.0044 -0.1602,0.0112 -0.2398,0.0209 -0.0638,0.0078 -0.1304,0.0215 -0.1887,0.0465 -0.046,0.0198 -0.0854,0.0477 -0.1137,0.0861 -0.0303,0.0413 -0.0397,0.0922 -0.0397,0.1408 0,0.0688 0.0235,0.1285 0.0785,0.1769 0.0543,0.0477 0.1199,0.0692 0.1953,0.0692 0.0315,0 0.0631,-0.0024 0.0939,-0.0085 0.0282,-0.0056 0.0556,-0.014 0.0815,-0.0254 0.0213,-0.0094 0.0414,-0.0217 0.0601,-0.0347 0.0189,-0.013 0.0376,-0.0262 0.056,-0.0397l0.0352 -0.0258 0 0.0408c0,0.0043 0,0.0086 0,0.0129 0,0.0321 0.0217,0.0573 0.0588,0.0573 0.0401,0 0.0802,0 0.1202,0 0.0371,0 0.0588,-0.0251 0.0588,-0.0573 0,-0.0704 0,-0.1407 0,-0.2111l0 -0.2878c0,-0.0811 -0.0235,-0.158 -0.0986,-0.208 -0.0867,-0.0577 -0.2317,-0.0673 -0.3356,-0.0673 -0.0666,0 -0.1331,0.0051 -0.1987,0.0151 -0.0319,0.0049 -0.0638,0.01 -0.0955,0.016 -0.0205,0.0039 -0.0324,0.0382 -0.0324,0.0548 0,0.0404 0,0.0808 0,0.1211z"/>
  <path class="fil0" d="M7.9831 1.1316c-0.0066,0.0019 -0.013,0.0036 -0.0189,0.0051 -0.0201,0.0052 -0.043,0.01 -0.064,0.01 -0.0309,0 -0.0661,-0.0035 -0.0931,-0.0183 -0.0222,-0.0122 -0.0388,-0.0296 -0.0478,-0.0512 -0.0093,-0.0212 -0.0136,-0.0436 -0.0142,-0.0663 -0.0006,-0.0261 -0.0008,-0.0521 -0.0008,-0.0782l0 -0.3192 0.0216 0c0.062,0 0.1241,0 0.186,0 0.0372,0 0.0588,-0.0251 0.0588,-0.0572 0,-0.01 0,-0.02 0,-0.03 0,-0.0322 -0.0216,-0.0573 -0.0588,-0.0573 -0.062,0 -0.124,0 -0.186,0l-0.0216 0 0 -0.0194c0,-0.0551 0,-0.0785 0,-0.1336 0,-0.0322 -0.0217,-0.0573 -0.0588,-0.0573 -0.0412,0 -0.0823,0 -0.1235,0 -0.0371,0 -0.0588,0.0251 -0.0588,0.0573 0,0.0551 0,0.0785 0,0.1336l0 0.0194 -0.0216 0c-0.012,0 -0.0239,0 -0.0359,0 -0.0371,0 -0.0588,0.0251 -0.0588,0.0573 0,0.01 0,0.02 0,0.03 0,0.0321 0.0217,0.0572 0.0588,0.0572 0.012,0 0.0239,0 0.0359,0l0.0216 0 0 0.4142c0,0.0692 0.0121,0.1558 0.0737,0.2044 0.0611,0.0482 0.1543,0.0591 0.2325,0.0591 0.0406,0 0.0824,-0.0012 0.1226,-0.0062 0.0102,-0.0013 0.0204,-0.0026 0.0306,-0.0042 0.0311,-0.0049 0.048,-0.0304 0.048,-0.0575l0 -0.0691c-0.0019,-0.0086 -0.0126,-0.0226 -0.0254,-0.0226 -0.0007,0 -0.0015,0 -0.0022,0.0001z"/>
  <path class="fil0" d="M6.2128 0.2638c-0.0198,0 -0.0422,0.0066 -0.05,0.0261l0 0.5815c0,0.1167 -0.0364,0.1944 -0.1839,0.2007 -0.043,0.0018 -0.0862,0.0016 -0.1292,0.0016l-0.0758 0 -0.0645 0.2114c0.1867,0 0.4437,0.0264 0.6135,-0.0868 0.0342,-0.0229 0.0621,-0.0518 0.0811,-0.088 0.0188,-0.0356 0.028,-0.0738 0.028,-0.1138l0 -0.3607c0,-0.0785 0.0038,-0.1399 -0.0271,-0.2039 -0.0404,-0.0837 -0.1211,-0.168 -0.1921,-0.168z"/>
  <g id="_2196468701552">
   <path class="fil1" d="M5.3713 0.8689l0 0.2066 -0.007 0.0057c-0.0243,0.02 -0.0523,0.0356 -0.0826,0.0472 -0.0299,0.0114 -0.0614,0.0182 -0.094,0.0182 -0.0263,0 -0.0599,-0.0008 -0.085,-0.0081 -0.019,-0.0055 -0.0365,-0.0143 -0.0506,-0.0262 -0.014,-0.0111 -0.0255,-0.0247 -0.0303,-0.0412l-0.0002 -0.0005c-0.004,-0.0154 -0.0051,-0.0318 -0.0051,-0.0476 0,-0.0278 0.0073,-0.055 0.0272,-0.0769 0.0192,-0.0211 0.046,-0.0346 0.0743,-0.0433 0.0327,-0.01 0.0709,-0.0153 0.1051,-0.0193 0.0414,-0.0049 0.083,-0.0093 0.1247,-0.0127l0.0235 -0.0019zm0.2378 0.1308l0 -0.2878c0,-0.0811 -0.0235,-0.158 -0.0986,-0.208 -0.0867,-0.0577 -0.2317,-0.0673 -0.3356,-0.0673 -0.0666,0 -0.1331,0.0051 -0.1987,0.0151 -0.0319,0.0049 -0.0638,0.01 -0.0955,0.016 -0.0206,0.0039 -0.0324,0.0382 -0.0324,0.0548 0,0.0139 0,0.0278 0,0.0416 0,0.0382 0.0197,0.076 0.0687,0.059 0.0142,-0.0049 0.0284,-0.01 0.0428,-0.0143 0.0502,-0.0149 0.1029,-0.0246 0.1558,-0.0246 0.0591,0 0.1318,0.0048 0.1856,0.0287 0.0507,0.0226 0.0717,0.0642 0.0717,0.1139l0 0.0229 -0.0202 0.0011c-0.0802,0.0044 -0.1602,0.0112 -0.2398,0.0209 -0.0638,0.0078 -0.1304,0.0215 -0.1887,0.0465 -0.046,0.0198 -0.0854,0.0477 -0.1137,0.0861 -0.0303,0.0412 -0.0397,0.0921 -0.0397,0.1408 0,0.0688 0.0235,0.1285 0.0785,0.1769 0.0543,0.0477 0.1199,0.0692 0.1953,0.0692 0.0314,0 0.0631,-0.0024 0.0939,-0.0085 0.0282,-0.0056 0.0555,-0.014 0.0815,-0.0254 0.0212,-0.0094 0.0414,-0.0217 0.0601,-0.0347 0.0189,-0.013 0.0376,-0.0262 0.056,-0.0397l0.0352 -0.0258 0 0.0408c0,0.0043 0,0.0086 0,0.0129 0,0.0321 0.0216,0.0573 0.0588,0.0573 0.0401,0 0.0802,0 0.1202,0 0.0371,0 0.0588,-0.0251 0.0588,-0.0573 0,-0.0704 0,-0.1408 0,-0.2111z"/>
   <path class="fil1" d="M4.2002 0.8885c0,0.1151 0,0.2303 0,0.3454 0,0.0321 0.0217,0.0572 0.0588,0.0572 0.0412,0 0.0823,0 0.1235,0 0.0371,0 0.0588,-0.0251 0.0588,-0.0572 0,-0.1626 0,-0.3252 0,-0.4878l0 -0.0134 0.0139 -0.0047c0.0951,-0.0323 0.1755,-0.0485 0.2766,-0.0369 0.0407,0.0047 0.0662,-0.0188 0.0662,-0.0548 0,-0.0315 0,-0.063 0,-0.0945 0,-0.0347 -0.0253,-0.0608 -0.0652,-0.0576 -0.1039,0.0083 -0.1805,0.0594 -0.2555,0.1208l-0.0361 0.0295 0 -0.0439c0,-0.0158 0,-0.0316 0,-0.0473 0,-0.0321 -0.0217,-0.0572 -0.0588,-0.0572 -0.0411,0 -0.0823,0 -0.1235,0 -0.0371,0 -0.0588,0.0251 -0.0588,0.0572 0,0.1151 0,0.2303 0,0.3454z"/>
   <path class="fil1" d="M3.2784 0.777l-0.4124 0 0.0015 -0.0206c0.0038,-0.0529 0.02,-0.1081 0.0664,-0.1439 0.0421,-0.0325 0.0937,-0.0452 0.1486,-0.0452 0.054,0 0.109,0.0116 0.1459,0.0495 0.0371,0.0381 0.0481,0.0912 0.0495,0.1403l0.0006 0.0199zm-0.0641 0.1199c0.0814,0 0.1627,0 0.2441,0 0.0371,0 0.0588,-0.0251 0.0588,-0.0573 0,-0.006 0,-0.012 0,-0.0181 0,-0.1022 -0.0226,-0.2098 -0.1029,-0.2868 -0.0798,-0.0766 -0.1965,-0.0981 -0.309,-0.0981 -0.1324,0 -0.2582,0.0301 -0.3533,0.1164 -0.0947,0.0861 -0.128,0.1987 -0.128,0.3175 0,0.1181 0.034,0.2302 0.1346,0.3113 0.1066,0.0859 0.2556,0.1093 0.3943,0.1093 0.0614,0 0.1236,-0.0046 0.1838,-0.0162 0.0413,-0.0081 0.082,-0.0192 0.1217,-0.0323 0.0278,-0.0092 0.0427,-0.0322 0.0427,-0.0584 0,-0.0152 0,-0.0304 0,-0.0455 0,-0.0425 -0.0327,-0.0711 -0.0792,-0.0525 -0.0185,0.0074 -0.037,0.0146 -0.0556,0.0215 -0.0583,0.0215 -0.1193,0.0328 -0.1823,0.0328 -0.0783,0 -0.1657,-0.0114 -0.2285,-0.0569 -0.0577,-0.0418 -0.0828,-0.1007 -0.0871,-0.1662l-0.0013 -0.0205 0.3474 0z"/>
   <path class="fil1" d="M4.1122 1.1316c-0.0066,0.0019 -0.013,0.0036 -0.0189,0.0051 -0.0201,0.0052 -0.043,0.01 -0.0641,0.01 -0.0309,0 -0.0661,-0.0035 -0.093,-0.0183 -0.0222,-0.0122 -0.0388,-0.0296 -0.0478,-0.0512 -0.0093,-0.0212 -0.0136,-0.0436 -0.0142,-0.0663 -0.0006,-0.0261 -0.0008,-0.0521 -0.0008,-0.0782l0 -0.3192 0.0216 0c0.062,0 0.124,0 0.186,0 0.0371,0 0.0588,-0.0251 0.0588,-0.0572 0,-0.01 0,-0.02 0,-0.03 0,-0.0322 -0.0217,-0.0573 -0.0588,-0.0573 -0.062,0 -0.124,0 -0.186,0l-0.0216 0 0 -0.0194c0,-0.0551 -0,-0.0785 0,-0.1336 0,-0.0322 -0.0216,-0.0573 -0.0588,-0.0573 -0.0412,0 -0.0823,0 -0.1234,0 -0.0371,0 -0.0588,0.0251 -0.0588,0.0573 -0,0.0551 0,0.0785 0,0.1336l0 0.0194 -0.0216 0c-0.012,0 -0.0239,0 -0.0359,0 -0.0371,0 -0.0588,0.0251 -0.0588,0.0573 0,0.01 0,0.02 0,0.03 0,0.0321 0.0217,0.0572 0.0588,0.0572 0.012,0 0.0239,0 0.0359,0l0.0216 0 0 0.4142c0,0.0692 0.0121,0.1558 0.0737,0.2044 0.0611,0.0482 0.1543,0.0591 0.2325,0.0591 0.0406,0 0.0824,-0.0012 0.1227,-0.0062 0.0102,-0.0013 0.0204,-0.0026 0.0306,-0.0042 0.0311,-0.0049 0.048,-0.0304 0.048,-0.0575l0 -0.0691c-0.002,-0.0086 -0.0126,-0.0226 -0.0254,-0.0226 -0.0007,0 -0.0015,0 -0.0022,0.0001z"/>
   <path class="fil1" d="M2.1363 0.2638c0.0198,0 0.0422,0.0066 0.05,0.0261l0 0.5815c0,0.1167 0.0364,0.1944 0.1839,0.2007 0.0431,0.0018 0.0862,0.0016 0.1292,0.0016l0.0758 0 0.0645 0.2114c-0.1867,0 -0.4437,0.0264 -0.6134,-0.0868 -0.0343,-0.0229 -0.0621,-0.0518 -0.0812,-0.088 -0.0188,-0.0356 -0.028,-0.0738 -0.028,-0.1138l0 -0.3607c0,-0.0785 -0.0038,-0.1399 0.0271,-0.2039 0.0404,-0.0837 0.1211,-0.168 0.1921,-0.168z"/>
  </g>
  <path class="fil0" d="M1.2184 0c-0.0275,0 -0.0587,0.0092 -0.0696,0.0363l0 0.8094c0,0.1624 -0.0506,0.2705 -0.2559,0.2794l-0 0 -0.006 0.0183 -0.0916 0.2781c0.1966,0 0.4059,-0.0072 0.5763,-0.1208 0.0477,-0.0318 0.0864,-0.0721 0.1129,-0.1225 0.0261,-0.0496 0.0389,-0.1027 0.0389,-0.1584l0 -0.502c0,-0.1092 0.0054,-0.1947 -0.0377,-0.2839 -0.0562,-0.1166 -0.1685,-0.2339 -0.2674,-0.2339z"/>
  <path class="fil1" d="M0.305 0c0.0275,0 0.0588,0.0092 0.0696,0.0363l0 0.8094c0,0.1624 0.0507,0.2705 0.2559,0.2794 0.0026,0.0001 0.0052,0.0002 0.0077,0.0003l0.0059 0.0179 0.0916 0.2781c-0.1989,0 -0.411,-0.0055 -0.5839,-0.1208 -0.0477,-0.0318 -0.0864,-0.0721 -0.1129,-0.1225 -0.0261,-0.0496 -0.0389,-0.1027 -0.0389,-0.1584l0 -0.5044c0,-0.1301 0.0036,-0.2219 0.0567,-0.3169 0.0584,-0.1047 0.1596,-0.1984 0.2484,-0.1984z"/>
 </g>
</svg>
