<?xml version="1.0" encoding="UTF-8"?>
<!DOCTYPE svg PUBLIC "-//W3C//DTD SVG 1.1//EN" "http://www.w3.org/Graphics/SVG/1.1/DTD/svg11.dtd">
<!-- Creator: CorelDRAW -->
<svg xmlns="http://www.w3.org/2000/svg" xml:space="preserve" width="65.6529mm" height="10.4833mm" version="1.1" style="shape-rendering:geometricPrecision; text-rendering:geometricPrecision; image-rendering:optimizeQuality; fill-rule:evenodd; clip-rule:evenodd"
viewBox="0 0 8.8824 1.4183"
 xmlns:xlink="http://www.w3.org/1999/xlink"
 xmlns:xodm="http://www.corel.com/coreldraw/odm/2003">
 <defs>
  <style type="text/css">
   <![CDATA[
    .fil0 {fill:white}
   ]]>
  </style>
 </defs>
 <g id="Layer_x0020_1">
  <metadata id="CorelCorpID_0Corel-Layer"/>
  <path class="fil0" d="M8.2114 0.7898c0.0024,-0.0203 0.0061,-0.0407 0.0121,-0.0604 0.0092,-0.0306 0.0232,-0.0623 0.0457,-0.0871 0.0188,-0.0207 0.0421,-0.0386 0.0703,-0.0477 0.0257,-0.0084 0.053,-0.0116 0.0803,-0.0116 0.029,0 0.0575,0.0045 0.0845,0.0142 0.0286,0.0102 0.052,0.0275 0.0699,0.0495 0.0213,0.0252 0.0346,0.0563 0.0432,0.0869 0.0116,0.0413 0.0149,0.0863 0.0149,0.1287 0,0.0418 -0.0021,0.0899 -0.0145,0.1304 -0.0093,0.0304 -0.0238,0.059 -0.0451,0.0838 -0.0179,0.0216 -0.0408,0.0382 -0.0688,0.048 -0.0263,0.0091 -0.0535,0.0136 -0.0816,0.0136 -0.0304,0 -0.0604,-0.0044 -0.0884,-0.0151 -0.0278,-0.0106 -0.0505,-0.027 -0.069,-0.0485 -0.022,-0.0256 -0.0352,-0.0571 -0.0434,-0.0883 -0.0106,-0.0402 -0.014,-0.0826 -0.014,-0.1238 0,-0.0242 0.0011,-0.0484 0.004,-0.0724zm0.4061 -0.3285c-0.0629,-0.0211 -0.1308,-0.0287 -0.1977,-0.0287 -0.1278,0 -0.2501,0.0286 -0.3408,0.1132 -0.0916,0.0855 -0.1218,0.199 -0.1218,0.315 0,0.1156 0.0301,0.2285 0.121,0.314 0.0906,0.0852 0.2135,0.1136 0.3415,0.1136 0.128,0 0.2509,-0.0285 0.3415,-0.1136 0.0909,-0.0855 0.121,-0.1984 0.121,-0.314 0,-0.1157 -0.0302,-0.2284 -0.1206,-0.3143 -0.0405,-0.0385 -0.089,-0.0666 -0.1443,-0.0851z"/>
  <path class="fil0" d="M7.0859 0.867l0 0.2062 -0.007 0.0057c-0.0242,0.02 -0.0522,0.0356 -0.0824,0.0471 -0.0298,0.0114 -0.0613,0.0182 -0.0938,0.0182 -0.0262,0 -0.0597,-0.0008 -0.0848,-0.0081 -0.019,-0.0055 -0.0365,-0.0143 -0.0505,-0.0262 -0.014,-0.0111 -0.0254,-0.0247 -0.0302,-0.0411l-0.0001 -0.0005c-0.004,-0.0154 -0.0052,-0.0317 -0.0052,-0.0475 0,-0.0278 0.0073,-0.0549 0.0271,-0.0768 0.0191,-0.0211 0.0459,-0.0345 0.0742,-0.0432 0.0326,-0.01 0.0707,-0.0152 0.1048,-0.0193 0.0414,-0.0049 0.0829,-0.0093 0.1244,-0.0126l0.0234 -0.0019zm-0.5219 -0.2247c0.0021,-0.0003 0.0042,-0.0009 0.0065,-0.0017 0.0344,-0.012 0.0698,-0.0226 0.1048,-0.0331 0.05,-0.0149 0.1026,-0.0245 0.1555,-0.0245 0.059,0 0.1315,0.0048 0.1851,0.0286 0.0506,0.0225 0.0716,0.0641 0.0716,0.1136l0 0.0228 -0.0202 0.0011c-0.08,0.0044 -0.1598,0.0111 -0.2392,0.0209 -0.0636,0.0078 -0.1301,0.0214 -0.1883,0.0464 -0.0459,0.0197 -0.0852,0.0476 -0.1135,0.0859 -0.0303,0.0412 -0.0397,0.092 -0.0397,0.1405 0,0.0687 0.0235,0.1282 0.0784,0.1765 0.0541,0.0476 0.1197,0.069 0.1949,0.069 0.0314,0 0.063,-0.0024 0.0936,-0.0085 0.0282,-0.0056 0.0554,-0.0139 0.0813,-0.0254 0.0212,-0.0094 0.0414,-0.0217 0.06,-0.0346 0.0188,-0.013 0.0375,-0.0262 0.0559,-0.0396l0.0351 -0.0257 0 0.0407c0,0.0043 0,0.0086 0,0.0129 0,0.0321 0.0216,0.0571 0.0586,0.0571 0.04,0 0.08,0 0.12,0 0.037,0 0.0586,-0.0251 0.0586,-0.0571 0,-0.0702 0,-0.1404 0,-0.2107l0 -0.2871c0,-0.0809 -0.0234,-0.1577 -0.0984,-0.2075 -0.0865,-0.0575 -0.2312,-0.0672 -0.3349,-0.0672 -0.0664,0 -0.1328,0.0051 -0.1983,0.0151 -0.0318,0.0049 -0.0637,0.01 -0.0953,0.016 -0.0205,0.0039 -0.0323,0.0382 -0.0323,0.0547 0,0.0403 0,0.0806 0,0.1209z"/>
  <path class="fil0" d="M7.9657 1.1291c-0.0065,0.0019 -0.013,0.0036 -0.0188,0.0051 -0.0201,0.0052 -0.0429,0.01 -0.0639,0.01 -0.0309,0 -0.066,-0.0034 -0.0929,-0.0182 -0.0222,-0.0122 -0.0387,-0.0296 -0.0477,-0.0511 -0.0093,-0.0211 -0.0136,-0.0435 -0.0141,-0.0661 -0.0006,-0.026 -0.0008,-0.052 -0.0008,-0.078l0 -0.3185 0.0215 0c0.0619,0 0.1238,0 0.1856,0 0.0371,0 0.0586,-0.025 0.0586,-0.0571 0,-0.01 0,-0.02 0,-0.0299 0,-0.0321 -0.0216,-0.0571 -0.0586,-0.0571 -0.0619,0 -0.1238,0 -0.1856,0l-0.0215 0 0 -0.0193c0,-0.0549 0,-0.0783 0,-0.1333 0,-0.0321 -0.0216,-0.0571 -0.0586,-0.0571 -0.0411,0 -0.0821,0 -0.1232,0 -0.037,0 -0.0586,0.0251 -0.0586,0.0571 0,0.0549 0,0.0783 0,0.1333l0 0.0193 -0.0215 0c-0.0119,0 -0.0239,0 -0.0358,0 -0.037,0 -0.0586,0.025 -0.0586,0.0571 0,0.01 0,0.0199 0,0.0299 0,0.0321 0.0216,0.0571 0.0586,0.0571 0.012,0 0.0239,0 0.0358,0l0.0215 0 0 0.4133c0,0.0691 0.0121,0.1555 0.0735,0.204 0.061,0.0481 0.154,0.059 0.232,0.059 0.0405,0 0.0822,-0.0012 0.1224,-0.0062 0.0102,-0.0013 0.0204,-0.0026 0.0305,-0.0042 0.031,-0.0049 0.0479,-0.0303 0.0479,-0.0574l0 -0.069c-0.0019,-0.0086 -0.0125,-0.0226 -0.0253,-0.0226 -0.0007,0 -0.0015,0 -0.0022,0.0001z"/>
  <path class="fil0" d="M6.1992 0.2633c-0.0197,0 -0.0421,0.0066 -0.0499,0.026l0 0.5802c0,0.1164 -0.0363,0.1939 -0.1835,0.2003 -0.043,0.0018 -0.086,0.0016 -0.1289,0.0016l-0.0757 0 -0.0643 0.2109c0.1863,0 0.4427,0.0264 0.6121,-0.0866 0.0342,-0.0228 0.062,-0.0517 0.081,-0.0878 0.0187,-0.0355 0.0279,-0.0736 0.0279,-0.1136l0 -0.3599c0,-0.0783 0.0038,-0.1396 -0.027,-0.2035 -0.0403,-0.0836 -0.1208,-0.1677 -0.1917,-0.1677z"/>
  <g id="_2196468595568">
   <path class="fil0" d="M5.3596 0.867l0 0.2062 -0.007 0.0057c-0.0242,0.02 -0.0522,0.0356 -0.0824,0.0471 -0.0298,0.0114 -0.0613,0.0182 -0.0938,0.0182 -0.0262,0 -0.0597,-0.0008 -0.0848,-0.0081 -0.019,-0.0055 -0.0365,-0.0143 -0.0505,-0.0262 -0.014,-0.0111 -0.0254,-0.0247 -0.0302,-0.0411l-0.0002 -0.0005c-0.004,-0.0154 -0.0051,-0.0317 -0.0051,-0.0475 0,-0.0278 0.0073,-0.0549 0.0271,-0.0768 0.0191,-0.0211 0.0459,-0.0345 0.0742,-0.0432 0.0326,-0.01 0.0707,-0.0153 0.1048,-0.0193 0.0413,-0.0049 0.0828,-0.0093 0.1244,-0.0126l0.0234 -0.0019zm0.2373 0.1305l0 -0.2871c0,-0.0809 -0.0234,-0.1577 -0.0984,-0.2075 -0.0865,-0.0575 -0.2312,-0.0672 -0.3349,-0.0672 -0.0665,0 -0.1328,0.0051 -0.1983,0.0151 -0.0318,0.0049 -0.0636,0.01 -0.0952,0.016 -0.0205,0.0039 -0.0323,0.0382 -0.0323,0.0547 0,0.0139 0,0.0277 0,0.0415 0,0.0381 0.0197,0.0758 0.0686,0.0588 0.0142,-0.0049 0.0283,-0.01 0.0428,-0.0143 0.05,-0.0149 0.1026,-0.0245 0.1555,-0.0245 0.059,0 0.1315,0.0048 0.1851,0.0286 0.0506,0.0225 0.0716,0.0641 0.0716,0.1136l0 0.0228 -0.0202 0.0011c-0.08,0.0044 -0.1598,0.0111 -0.2392,0.0209 -0.0636,0.0078 -0.1301,0.0214 -0.1883,0.0464 -0.0459,0.0197 -0.0852,0.0476 -0.1135,0.0859 -0.0303,0.0412 -0.0397,0.0919 -0.0397,0.1405 0,0.0687 0.0235,0.1282 0.0784,0.1765 0.0541,0.0476 0.1197,0.069 0.1949,0.069 0.0314,0 0.063,-0.0024 0.0936,-0.0085 0.0282,-0.0056 0.0554,-0.0139 0.0813,-0.0254 0.0212,-0.0093 0.0413,-0.0217 0.06,-0.0346 0.0188,-0.013 0.0375,-0.0262 0.0559,-0.0396l0.0351 -0.0257 0 0.0407c0,0.0043 0,0.0086 0,0.0129 0,0.0321 0.0216,0.0571 0.0586,0.0571 0.04,0 0.08,0 0.12,0 0.037,0 0.0586,-0.0251 0.0586,-0.0571 0,-0.0702 0,-0.1404 0,-0.2107z"/>
   <path class="fil0" d="M4.1911 0.8866c0,0.1149 0,0.2298 0,0.3446 0,0.0321 0.0216,0.0571 0.0586,0.0571 0.0411,0 0.0821,0 0.1232,0 0.0371,0 0.0587,-0.025 0.0587,-0.0571 0,-0.1623 0,-0.3245 0,-0.4868l0 -0.0134 0.0139 -0.0047c0.0949,-0.0322 0.1751,-0.0484 0.276,-0.0368 0.0406,0.0047 0.0661,-0.0188 0.0661,-0.0547 0,-0.0314 0,-0.0629 0,-0.0943 0,-0.0346 -0.0252,-0.0607 -0.065,-0.0575 -0.1037,0.0083 -0.1801,0.0593 -0.2549,0.1205l-0.036 0.0295 0 -0.0438c0,-0.0157 0,-0.0315 0,-0.0472 0,-0.0321 -0.0216,-0.0571 -0.0587,-0.0571 -0.041,0 -0.0821,0 -0.1232,0 -0.037,0 -0.0586,0.025 -0.0586,0.0571 0,0.1149 0,0.2298 0,0.3446z"/>
   <path class="fil0" d="M3.2712 0.7753l-0.4115 0 0.0015 -0.0206c0.0038,-0.0528 0.0199,-0.1078 0.0663,-0.1436 0.042,-0.0324 0.0935,-0.0451 0.1483,-0.0451 0.0539,0 0.1088,0.0115 0.1456,0.0494 0.037,0.038 0.048,0.091 0.0494,0.14l0.0006 0.0198zm-0.0639 0.1196c0.0812,0 0.1624,0 0.2436,0 0.037,0 0.0586,-0.0251 0.0586,-0.0571 0,-0.006 0,-0.012 0,-0.018 0,-0.102 -0.0225,-0.2093 -0.1026,-0.2862 -0.0796,-0.0764 -0.1961,-0.0979 -0.3083,-0.0979 -0.1321,0 -0.2577,0.03 -0.3525,0.1162 -0.0945,0.0859 -0.1277,0.1983 -0.1277,0.3168 0,0.1179 0.0339,0.2297 0.1343,0.3106 0.1064,0.0857 0.255,0.109 0.3935,0.109 0.0613,0 0.1233,-0.0045 0.1834,-0.0162 0.0412,-0.008 0.0818,-0.0191 0.1214,-0.0322 0.0278,-0.0092 0.0426,-0.0322 0.0426,-0.0583 0,-0.0152 0,-0.0303 0,-0.0454 0,-0.0424 -0.0326,-0.071 -0.0791,-0.0524 -0.0184,0.0073 -0.0369,0.0146 -0.0555,0.0215 -0.0581,0.0215 -0.1191,0.0327 -0.1819,0.0327 -0.0781,0 -0.1653,-0.0114 -0.228,-0.0568 -0.0576,-0.0417 -0.0827,-0.1005 -0.0869,-0.1658l-0.0013 -0.0205 0.3466 0z"/>
   <path class="fil0" d="M4.1032 1.1291c-0.0066,0.0019 -0.013,0.0036 -0.0188,0.0051 -0.0201,0.0052 -0.043,0.01 -0.0639,0.01 -0.0308,0 -0.066,-0.0034 -0.0928,-0.0182 -0.0222,-0.0122 -0.0387,-0.0296 -0.0477,-0.0511 -0.0093,-0.0211 -0.0136,-0.0435 -0.0142,-0.0661 -0.0006,-0.026 -0.0008,-0.052 -0.0008,-0.078l0 -0.3185 0.0215 0c0.0619,0 0.1238,0 0.1856,0 0.0371,0 0.0587,-0.025 0.0587,-0.0571 0,-0.01 0,-0.02 0,-0.0299 0,-0.0321 -0.0216,-0.0571 -0.0587,-0.0571 -0.0619,0 -0.1238,0 -0.1856,0l-0.0215 0 0 -0.0193c0,-0.0549 -0,-0.0783 0,-0.1333 0,-0.0321 -0.0216,-0.0571 -0.0586,-0.0571 -0.0411,0 -0.0821,0 -0.1232,0 -0.037,0 -0.0586,0.0251 -0.0586,0.0571 -0,0.0549 0,0.0783 0,0.1333l0 0.0193 -0.0215 0c-0.012,0 -0.0239,0 -0.0358,0 -0.037,0 -0.0586,0.025 -0.0586,0.0571 0,0.01 0,0.0199 0,0.0299 0,0.0321 0.0216,0.0571 0.0586,0.0571 0.012,0 0.0239,0 0.0358,0l0.0215 0 0 0.4133c0,0.0691 0.0121,0.1555 0.0735,0.204 0.0609,0.0481 0.1539,0.059 0.232,0.059 0.0405,0 0.0823,-0.0012 0.1224,-0.0062 0.0102,-0.0013 0.0204,-0.0026 0.0305,-0.0042 0.031,-0.0049 0.0479,-0.0303 0.0479,-0.0574l0 -0.069c-0.002,-0.0086 -0.0126,-0.0226 -0.0254,-0.0226 -0.0007,0 -0.0015,0 -0.0022,0.0001z"/>
   <path class="fil0" d="M2.1316 0.2633c0.0197,0 0.0421,0.0066 0.0499,0.026l0 0.5802c0,0.1164 0.0363,0.1939 0.1835,0.2003 0.043,0.0018 0.086,0.0016 0.129,0.0016l0.0757 0 0.0643 0.2109c-0.1863,0 -0.4427,0.0264 -0.6121,-0.0866 -0.0342,-0.0228 -0.062,-0.0517 -0.081,-0.0878 -0.0187,-0.0355 -0.0279,-0.0736 -0.0279,-0.1136l0 -0.3599c0,-0.0783 -0.0038,-0.1396 0.027,-0.2035 0.0403,-0.0836 0.1208,-0.1677 0.1917,-0.1677z"/>
  </g>
  <path class="fil0" d="M1.2157 0c-0.0275,0 -0.0586,0.0092 -0.0694,0.0362l0 0.8076c0,0.1621 -0.0505,0.2699 -0.2554,0.2788l-0 0 -0.006 0.0182 -0.0914 0.2775c0.1962,0 0.405,-0.0072 0.575,-0.1205 0.0476,-0.0318 0.0862,-0.0719 0.1127,-0.1222 0.026,-0.0495 0.0388,-0.1025 0.0388,-0.158l0 -0.5009c0,-0.109 0.0053,-0.1943 -0.0376,-0.2832 -0.0561,-0.1163 -0.1681,-0.2334 -0.2668,-0.2334z"/>
  <path class="fil0" d="M0.3044 0c0.0275,0 0.0586,0.0092 0.0694,0.0362l0 0.8076c0,0.1621 0.0506,0.2699 0.2554,0.2788 0.0026,0.0001 0.0051,0.0002 0.0077,0.0003l0.0059 0.0179 0.0914 0.2775c-0.1985,0 -0.4101,-0.0055 -0.5826,-0.1205 -0.0476,-0.0318 -0.0862,-0.0719 -0.1127,-0.1222 -0.026,-0.0495 -0.0388,-0.1025 -0.0388,-0.158l0 -0.5033c0,-0.1298 0.0036,-0.2214 0.0566,-0.3162 0.0583,-0.1044 0.1592,-0.198 0.2478,-0.198z"/>
 </g>
</svg>
