<?xml version="1.0" encoding="UTF-8"?>
<!DOCTYPE svg PUBLIC "-//W3C//DTD SVG 1.1//EN" "http://www.w3.org/Graphics/SVG/1.1/DTD/svg11.dtd">
<!-- Creator: CorelDRAW -->
<svg xmlns="http://www.w3.org/2000/svg" xml:space="preserve" width="24.4988mm" height="22.8547mm" version="1.1" style="shape-rendering:geometricPrecision; text-rendering:geometricPrecision; image-rendering:optimizeQuality; fill-rule:evenodd; clip-rule:evenodd"
viewBox="0 0 1.3993 1.3054"
 xmlns:xlink="http://www.w3.org/1999/xlink"
 xmlns:xodm="http://www.corel.com/coreldraw/odm/2003">
 <defs>
  <style type="text/css">
   <![CDATA[
    .fil0 {fill:#4D4D4D}
    .fil1 {fill:#FF6600}
   ]]>
  </style>
 </defs>
 <g id="Layer_x0020_1">
  <metadata id="CorelCorpID_0Corel-Layer"/>
  <path class="fil0" d="M0.2803 0c0.0253,0 0.054,0.0085 0.0639,0.0333l0 0.7433c0,0.1492 0.0465,0.2484 0.235,0.2566l0 0 0.0055 0.0168 0.0841 0.2554c-0.1806,0 -0.3728,-0.0066 -0.5293,-0.1109 -0.0438,-0.0292 -0.0794,-0.0662 -0.1037,-0.1125 -0.024,-0.0455 -0.0357,-0.0944 -0.0357,-0.1455l0 -0.4611c0,-0.1003 -0.0049,-0.1788 0.0346,-0.2607 0.0516,-0.107 0.1547,-0.2148 0.2456,-0.2148z"/>
  <path class="fil1" d="M1.1192 0c-0.0253,0 -0.054,0.0085 -0.0639,0.0333l0 0.7433c0,0.1492 -0.0465,0.2484 -0.235,0.2566 -0.0024,0.0001 -0.0047,0.0002 -0.0071,0.0003l-0.0054 0.0165 -0.0841 0.2554c0.1827,0 0.3775,-0.0051 0.5362,-0.1109 0.0438,-0.0292 0.0794,-0.0662 0.1037,-0.1125 0.024,-0.0455 0.0358,-0.0944 0.0358,-0.1455l0 -0.4633c0,-0.1195 -0.0033,-0.2037 -0.052,-0.2911 -0.0537,-0.0961 -0.1465,-0.1822 -0.2281,-0.1822z"/>
 </g>
</svg>
